<svg xmlns="http://www.w3.org/2000/svg" width="512" height="512" viewBox="0 0 512 512"><title>icon</title><g id="paper"><rect width="512" height="512" style="fill:#f2ecde"/></g><g id="reflection"><path d="M257.31,411.568q-29.94-3.99-63.236-10.727a122.247,122.247,0,0,0-23.385-1.925,113.991,113.991,0,0,0-25.819,2.819q-12.162,2.817-17.586,7.151t-5.425,6.257q0,.825,1.684.825a22.2,22.2,0,0,0,6.174-1.65,35.532,35.532,0,0,1,11.973-1.65,174.943,174.943,0,0,1,21.7,1.925q40.779,5.5,93.918,11.276m35.921-31.9q14.214,1.1,23.573,1.1,19.082,0,33.675-5.5t14.593-8.045q0-2.543-3.929-3.713a38.84,38.84,0,0,0-10.664-1.169,154.692,154.692,0,0,0-18.521,1.513,233.084,233.084,0,0,1-29,1.513,358.394,358.394,0,0,1-63.236-6.051q-20.961-3.714-27.315-3.713-8.611,0-20.018,5.019t-11.413,7.564c0,1.695.994,2.888,2.994,3.575a21.843,21.843,0,0,0,7.109,1.031,50.525,50.525,0,0,0,7.671-.549,51.368,51.368,0,0,1,7.858-.551q4.3,0,18.895,1.513t17.587,2.269m50.887,39.4q38.166,2.475,50.326,2.475a157.8,157.8,0,0,0,19.083-.894q6.921-.9,16.838-5.088t9.915-6.119q0-2.889-14.592-2.888-8.235,0-19.831,1.031t-25.444,1.031q-13.848,0-36.3-2.75m-53.133,31.738q-49.8-3.824-58.745-3.822-3.368,0-3.368.55l.374.963c0,.365-.625.55-1.87.55a42.026,42.026,0,0,1-7.484-1.307,40.968,40.968,0,0,0-7.857-1.306q-2.245,0-2.245.619t4.489,1.444q87.18,15.4,102.711,18.771T282.38,468.5q0,.961-3.929,2.682t-3.929,2.269c0,.365.871.55,2.619.55q8.98,0,27.5-2.407T333.08,464.1q9.909-5.089,9.916-7.22t-7.671-3.575q-7.673-1.444-24.134-1.925t-25.069-1.032" style="fill:#f20c00"/></g><g id="river"><path d="M31.516,340.75q-19.714.073-37.016.109V348q13.549.337,28.384.675,97.752,2.25,169.64,2.234,103.488,0,186.888-2.234,48.974-1.283,136.088-2.224c-.308-2.573-.573-5.159-.771-7.759Q269.995,339.684,31.516,340.75Z" style="fill:#177cb0"/></g><g id="item"><path d="M257.31,205.525a450.941,450.941,0,0,0-63.236,29.186q-9.733,5.244-23.385,5.238a47.554,47.554,0,0,1-25.819-7.67q-12.162-7.665-17.586-19.458T121.859,195.8q0-2.245,1.684-2.246t6.174,4.49q4.489,4.491,11.973,4.49t21.7-5.238q40.779-14.96,93.918-30.682m35.921,86.808q14.214-2.99,23.573-2.993,19.082,0,33.675,14.967t14.593,21.889q0,6.92-3.929,10.1t-10.664,3.181q-6.733,0-18.521-4.117t-29-4.116q-29.564,0-63.236,16.464-20.961,10.1-27.315,10.1-8.611,0-20.018-13.657t-11.413-20.58q0-6.919,2.994-9.729a10.033,10.033,0,0,1,7.109-2.806,19.673,19.673,0,0,1,7.671,1.5,19.976,19.976,0,0,0,7.858,1.5q4.3,0,18.895-4.117t17.587-6.173m50.887-107.2q38.166-6.737,50.326-6.735t19.083,2.432q6.921,2.438,16.838,13.844t9.915,16.651q0,7.859-14.592,7.858a86.444,86.444,0,0,1-19.831-2.807,108.191,108.191,0,0,0-25.444-2.806q-13.848,0-36.3,7.483M240.846,107.2q-49.8,10.4-58.745,10.4-3.368,0-3.368-1.5l.374-2.62c0-.994-.625-1.5-1.87-1.5s-3.742,1.187-7.484,3.555-6.361,3.555-7.857,3.555-2.245-.562-2.245-1.684,1.5-2.432,4.489-3.929q87.18-41.9,102.711-51.075T282.38,50.617q0-2.613-3.929-7.3t-3.929-6.174c0-.993.871-1.5,2.619-1.5q8.98,0,27.5,6.548T333.08,62.59Q342.989,76.438,343,82.235t-7.671,9.728q-7.673,3.93-24.134,5.239t-25.069,2.806"/></g></svg>